<svg width="29" height="29" viewBox="0 0 29 29" fill="none" xmlns="http://www.w3.org/2000/svg">
<g id="Iconly/Broken/Calling">
<g id="Calling">
<path id="Calling_2" fill-rule="evenodd" clip-rule="evenodd" d="M16.4315 3.69984C16.4845 3.23116 16.9036 2.88647 17.3679 2.94676C21.9743 3.46095 25.5529 7.06027 26.0691 11.6982C26.1222 12.1669 25.7867 12.5901 25.3225 12.6413C25.2897 12.6447 25.2581 12.6469 25.2264 12.6469C24.8017 12.6469 24.4346 12.325 24.386 11.8893C23.9568 8.04883 20.995 5.06836 17.1804 4.64176C16.715 4.58943 16.3806 4.16853 16.4315 3.69984ZM5.1821 7.10612C4.60036 7.91153 4.64102 8.94446 5.26569 10.3266C5.45885 10.7555 5.27133 11.2606 4.84548 11.4562C4.42075 11.6519 3.91696 11.4619 3.7238 11.0331C2.83594 9.06846 2.85175 7.42806 3.7735 6.16079C3.96779 5.83089 6.1174 3.05291 8.1292 3.18601C8.71093 3.23379 9.2441 3.50795 9.74564 4.00052C10.2777 4.52267 12.5177 7.26539 12.6973 8.13678C12.8902 9.06992 12.4743 9.79865 12.1705 10.3309L12.1697 10.3323C11.8704 10.8567 11.7665 11.0808 11.8693 11.3641C12.6261 13.2275 13.7941 14.7484 15.3292 15.853C15.7099 16.1283 15.798 16.6596 15.5257 17.0441C15.3608 17.2761 15.101 17.4013 14.8367 17.4013C14.6661 17.4013 14.4933 17.3501 14.3442 17.242C12.5448 15.9463 11.1802 14.1762 10.2878 11.9773C9.89587 10.8909 10.3613 10.0764 10.7013 9.4814C10.9566 9.03547 11.0978 8.76927 11.0379 8.48488C10.8797 8.07421 9.22716 5.87526 8.56183 5.22229C8.35624 5.01866 8.16308 4.89921 8.01963 4.88784C7.25828 4.85257 5.55712 6.48045 5.1821 7.10612ZM18.1443 16.9578C18.7768 16.5574 19.6444 16.0125 20.7457 16.2411C21.6098 16.4209 24.3321 18.6767 24.8518 19.2136C25.3409 19.7164 25.6131 20.2534 25.6594 20.8108C25.7328 22.9051 22.945 25.0961 22.6265 25.2804C22.0176 25.7218 21.3048 25.9447 20.504 25.9447C19.7065 25.9447 18.8209 25.724 17.8619 25.2758C14.1726 23.731 8.59358 18.729 5.45784 14.1389C5.19239 13.7521 5.28953 13.2208 5.67472 12.9524C6.05991 12.6885 6.58856 12.7829 6.85288 13.1731C9.78191 17.4583 15.1362 22.2862 18.5441 23.7139C19.9234 24.3578 20.9502 24.3976 21.7126 23.847C22.3068 23.483 23.9989 21.7914 23.9684 20.9109C23.9583 20.8074 23.8408 20.6129 23.6408 20.4058C22.9902 19.7346 20.8078 18.0715 20.3515 17.8986C19.9877 17.8246 19.6172 18.0408 19.0468 18.4014L18.7531 18.5857C18.3521 18.828 17.8302 18.696 17.5908 18.2945C17.349 17.8895 17.4789 17.3651 17.8799 17.1228L18.1443 16.9578ZM20.3943 11.9675C20.4733 12.3747 20.828 12.6569 21.2245 12.6569C21.2787 12.6569 21.3341 12.6523 21.3883 12.6421C21.848 12.5522 22.1474 12.1028 22.0581 11.641C21.5995 9.27482 19.7854 7.44786 17.4359 6.98714C16.9829 6.90864 16.5322 7.19986 16.4418 7.66172C16.3526 8.12358 16.6531 8.57293 17.1117 8.6628C18.7801 8.98928 20.0689 10.2861 20.3943 11.9675Z" fill="white"/>
</g>
</g>
</svg>
